{
  "source": "C:\\Users\\Peter\\Desktop\\stuff\\MIUN\\quantitative_research\\video_compression\\videos\\BVI-HD\\BVI-HD_CDVL_videos\\ORIG\\PaintingTilting_1920x1080_60fps.mp4",
  "output": "C:\\Users\\Peter\\Desktop\\stuff\\MIUN\\quantitative_research\\video_compression\\compressed_videos\\BVI-HD\\h264\\2.5\\PaintingTilting_1920x1080_60fps_h264.mp4",
  "codec": "h264",
  "ok": "Input #0, mov,mp4,m4a,3gp,3g2,mj2, from 'C:\\Users\\Peter\\Desktop\\stuff\\MIUN\\quantitative_research\\video_compression\\videos\\BVI-HD\\BVI-HD_CDVL_videos\\ORIG\\PaintingTilting_1920x1080_60fps.mp4':\n  Metadata:\n    major_brand     : isom\n    minor_version   : 512\n    compatible_brands: isomiso2avc1mp41\n    encoder         : Lavf54.28.101\n  Duration: 00:00:05.00, start: 0.000000, bitrate: 667707 kb/s\n  Stream #0:0[0x1](und): Video: h264 (High 4:4:4 Predictive) (avc1 / 0x31637661), yuv420p(progressive), 1920x1080, 667702 kb/s, 60 fps, 60 tbr, 60 tbn (default)\n    Metadata:\n      handler_name    : VideoHandler\n      vendor_id       : [0][0][0][0]\n[out#0/mp4 @ 0000028c6e2a9cc0] Codec AVOption b:a (set bitrate (in bits/s)) has not been used for any stream. The most likely reason is either wrong type (e.g. a video option with no video streams) or that it is a private option of some decoder which was not actually used for any stream.\nStream mapping:\n  Stream #0:0 -> #0:0 (h264 (native) -> h264 (libx264))\nPress [q] to stop, [?] for help\n[libx264 @ 0000028c6e2bbc80] using cpu capabilities: MMX2 SSE2Fast SSSE3 SSE4.2 AVX FMA3 BMI2 AVX2\n[libx264 @ 0000028c6e2bbc80] profile High, level 5.0, 4:2:0, 8-bit\n[libx264 @ 0000028c6e2bbc80] 264 - core 165 r3222 b35605a - H.264/MPEG-4 AVC codec - Copyleft 2003-2025 - http://www.videolan.org/x264.html - options: cabac=1 ref=5 deblock=1:0:0 analyse=0x3:0x113 me=hex subme=8 psy=1 psy_rd=1.00:0.00 mixed_ref=1 me_range=16 chroma_me=1 trellis=2 8x8dct=1 cqm=0 deadzone=21,11 fast_pskip=1 chroma_qp_offset=-2 threads=18 lookahead_threads=3 sliced_threads=0 nr=0 decimate=1 interlaced=0 bluray_compat=0 constrained_intra=0 bframes=3 b_pyramid=2 b_adapt=1 b_bias=0 direct=3 weightb=1 open_gop=0 weightp=2 keyint=250 keyint_min=25 scenecut=40 intra_refresh=0 rc_lookahead=50 rc=cbr mbtree=1 bitrate=2500 ratetol=1.0 qcomp=0.60 qpmin=0 qpmax=69 qpstep=4 vbv_maxrate=2500 vbv_bufsize=2500 nal_hrd=none filler=0 ip_ratio=1.40 aq=1:1.00\nOutput #0, mp4, to 'C:\\Users\\Peter\\Desktop\\stuff\\MIUN\\quantitative_research\\video_compression\\compressed_videos\\BVI-HD\\h264\\2.5\\PaintingTilting_1920x1080_60fps_h264.mp4':\n  Metadata:\n    major_brand     : isom\n    minor_version   : 512\n    compatible_brands: isomiso2avc1mp41\n    encoder         : Lavf62.3.100\n  Stream #0:0(und): Video: h264 (avc1 / 0x31637661), yuv420p(tv, progressive), 1920x1080, q=2-31, 2500 kb/s, 60 fps, 15360 tbn (default)\n    Metadata:\n      encoder         : Lavc62.11.100 libx264\n      handler_name    : VideoHandler\n      vendor_id       : [0][0][0][0]\n    Side data:\n      cpb: bitrate max/min/avg: 2500000/0/2500000 buffer size: 2500000 vbv_delay: N/A\nframe=    0 fps=0.0 q=0.0 size=       0KiB time=N/A bitrate=N/A speed=N/A elapsed=0:00:01.06    \nframe=    0 fps=0.0 q=0.0 size=       0KiB time=N/A bitrate=N/A speed=N/A elapsed=0:00:01.67    \nframe=    0 fps=0.0 q=0.0 size=       0KiB time=N/A bitrate=N/A speed=N/A elapsed=0:00:02.30    \nframe=   12 fps=4.0 q=45.0 size=       0KiB time=00:00:00.16 bitrate=   2.3kbits/s speed=0.0559x elapsed=0:00:02.98    \nframe=   44 fps= 12 q=40.0 size=       0KiB time=00:00:00.63 bitrate=   0.6kbits/s speed=0.179x elapsed=0:00:03.53    \nframe=   62 fps= 15 q=40.0 size=       0KiB time=00:00:00.95 bitrate=   0.4kbits/s speed=0.23x elapsed=0:00:04.12    \nframe=   78 fps= 16 q=40.0 size=     256KiB time=00:00:01.21 bitrate=1724.0kbits/s speed=0.257x elapsed=0:00:04.73    \nframe=   98 fps= 18 q=40.0 size=     256KiB time=00:00:01.55 bitrate=1353.2kbits/s speed=0.291x elapsed=0:00:05.32    \nframe=  124 fps= 21 q=40.0 size=     256KiB time=00:00:01.96 bitrate=1066.5kbits/s speed=0.331x elapsed=0:00:05.94    \nframe=  133 fps= 20 q=39.0 size=     256KiB time=00:00:02.16 bitrate= 968.1kbits/s speed=0.329x elapsed=0:00:06.58    \nframe=  160 fps= 22 q=39.0 size=     512KiB time=00:00:02.48 bitrate=1689.1kbits/s speed=0.347x elapsed=0:00:07.15    \nframe=  178 fps= 23 q=38.0 size=     512KiB time=00:00:02.93 bitrate=1430.0kbits/s speed=0.376x elapsed=0:00:07.79    \nframe=  192 fps= 23 q=42.0 size=     512KiB time=00:00:03.15 bitrate=1331.6kbits/s speed=0.377x elapsed=0:00:08.35    \nframe=  215 fps= 24 q=41.0 size=     512KiB time=00:00:03.50 bitrate=1198.5kbits/s speed=0.39x elapsed=0:00:08.98    \nframe=  233 fps= 24 q=41.0 size=     512KiB time=00:00:03.85 bitrate=1089.5kbits/s speed=0.401x elapsed=0:00:09.60    \nframe=  250 fps= 25 q=43.0 size=     512KiB time=00:00:04.13 bitrate=1014.8kbits/s speed=0.407x elapsed=0:00:10.14    \nframe=  272 fps= 26 q=39.0 size=     768KiB time=00:00:04.50 bitrate=1398.2kbits/s speed=0.422x elapsed=0:00:10.65    \n[mp4 @ 0000028c6e2ba600] Starting second pass: moving the moov atom to the beginning of the file\n[out#0/mp4 @ 0000028c6e2a9cc0] video:1006KiB audio:0KiB subtitle:0KiB other streams:0KiB global headers:0KiB muxing overhead: 0.432382%\nframe=  300 fps= 27 q=-1.0 Lsize=    1011KiB time=00:00:04.96 bitrate=1666.8kbits/s speed=0.454x elapsed=0:00:10.94    \n[libx264 @ 0000028c6e2bbc80] frame I:2     Avg QP:38.60  size:144884\n[libx264 @ 0000028c6e2bbc80] frame P:76    Avg QP:37.88  size:  7582\n[libx264 @ 0000028c6e2bbc80] frame B:222   Avg QP:44.59  size:   737\n[libx264 @ 0000028c6e2bbc80] consecutive B-frames:  1.3%  0.0%  0.0% 98.7%\n[libx264 @ 0000028c6e2bbc80] mb I  I16..4:  0.2% 88.2% 11.6%\n[libx264 @ 0000028c6e2bbc80] mb P  I16..4:  0.0%  0.5%  0.0%  P16..4: 19.9%  2.8%  1.6%  0.0%  0.0%    skip:75.1%\n[libx264 @ 0000028c6e2bbc80] mb B  I16..4:  0.0%  0.0%  0.0%  B16..8:  7.4%  0.2%  0.1%  direct: 0.2%  skip:92.2%  L0:15.9% L1:83.7% BI: 0.5%\n[libx264 @ 0000028c6e2bbc80] 8x8 transform intra:88.7% inter:79.4%\n[libx264 @ 0000028c6e2bbc80] direct mvs  spatial:95.5% temporal:4.5%\n[libx264 @ 0000028c6e2bbc80] coded y,uvDC,uvAC intra: 91.2% 88.7% 58.3% inter: 1.4% 2.8% 0.2%\n[libx264 @ 0000028c6e2bbc80] i16 v,h,dc,p: 65% 14% 10% 11%\n[libx264 @ 0000028c6e2bbc80] i8 v,h,dc,ddl,ddr,vr,hd,vl,hu: 16%  6%  5%  8% 11% 15% 10% 16% 14%\n[libx264 @ 0000028c6e2bbc80] i4 v,h,dc,ddl,ddr,vr,hd,vl,hu: 12%  4%  2% 10% 13% 18% 12% 15% 14%\n[libx264 @ 0000028c6e2bbc80] i8c dc,h,v,p: 51% 14% 20% 15%\n[libx264 @ 0000028c6e2bbc80] Weighted P-Frames: Y:2.6% UV:0.0%\n[libx264 @ 0000028c6e2bbc80] ref P L0: 66.5% 30.7%  1.9%  0.5%  0.5%  0.0%\n[libx264 @ 0000028c6e2bbc80] ref B L0: 93.0%  6.7%  0.3%  0.1%\n[libx264 @ 0000028c6e2bbc80] ref B L1: 99.9%  0.1%\n[libx264 @ 0000028c6e2bbc80] kb/s:1647.32\n",
  "seconds": 11.613804340362549,
  "probe_out": {}
}